<svg width="105" height="83" viewBox="0 0 105 83" fill="none" xmlns="http://www.w3.org/2000/svg">
<path d="M81.5593 51.9894C81.5751 52.3264 81.2898 52.503 80.9886 52.5993C80.3862 52.7759 79.7838 52.9364 79.1815 53.0969C78.7852 53.2092 78.3413 53.2574 77.9926 53.4982C77.834 53.6105 77.6438 53.7068 77.4536 53.6426C77.3585 53.6105 77.2792 53.5463 77.2 53.4821C77.0414 53.3858 76.8988 53.45 76.7403 53.4821C76.122 53.5784 75.4404 53.7068 74.7112 53.1771C75.5514 52.8561 76.3598 52.5351 77.1841 52.1659C77.4377 52.0536 77.6914 51.9412 77.9609 51.8931C78.2145 51.8449 78.4523 51.8931 78.7059 51.8289C79.4509 51.6683 80.196 51.3313 80.9727 51.6041C81.1947 51.7004 81.5434 51.6683 81.5593 51.9894ZM66.4365 42.8403C66.4365 42.9205 66.4206 43.0008 66.3731 43.065C66.1511 43.5305 65.8341 43.8675 65.4219 44.1725C64.9939 44.4775 64.6769 44.9108 64.2013 45.1837C63.5831 45.5529 62.8381 45.601 62.1881 45.2961C61.1895 44.8306 60.2383 44.2527 59.2555 43.7552C59.0177 43.6268 58.7483 43.5465 58.4946 43.4823C58.3203 43.4342 58.0983 43.2255 57.9557 43.4341C57.7971 43.6589 57.924 43.9799 58.1142 44.1243C59.0336 44.8627 60.0006 45.585 61.1261 45.9863C62.2198 46.3875 63.6148 46.532 64.6928 46.0184C65.2317 45.7616 65.9609 45.3763 66.2779 44.8466C66.4999 44.4775 66.6584 44.028 66.7535 43.6107C66.7852 43.4663 66.8486 43.0489 66.7852 42.7761C66.7218 42.5834 66.4365 42.6316 66.4365 42.8403ZM60.8407 41.8772C59.3982 41.5241 58.0983 40.6573 57.0204 39.6461C56.4497 39.1164 55.3718 38.1052 56.0534 37.2705C56.7668 36.4038 57.8923 35.9704 58.9068 35.5691C60.1274 35.0876 61.4431 34.8308 62.743 35.1037C63.2027 35.2 63.6465 35.3605 64.0745 35.5691C64.4233 35.7457 64.9305 35.9704 65.1842 36.2593C65.5963 36.7088 65.8817 37.5113 65.9768 38.1212C66.0719 38.7312 66.1511 39.7745 65.8182 40.3042C65.5171 40.7857 64.8671 41.1709 64.3916 41.4278C63.3136 41.9735 62.0296 42.1661 60.8407 41.8772ZM61.4114 37.8002C61.9028 38.1052 62.8064 38.2336 62.7905 37.3989C62.7747 36.7569 62.3625 36.2914 61.8077 36.3075C61.348 36.3235 61.0468 36.6125 60.9517 37.0458C60.8407 37.399 61.1102 37.6237 61.4114 37.8002ZM58.3044 38.1052C58.0508 38.1373 57.8923 38.2978 57.9081 38.5546C57.9557 38.9399 58.0983 39.2609 58.4946 39.3572C58.7324 39.4053 59.1763 39.3251 59.2555 39.0362C59.3348 38.7793 58.5897 38.0731 58.3044 38.1052ZM48.3969 34.6863C48.4603 35.1037 48.3969 35.5049 48.0799 35.8099C47.747 36.1309 47.1922 36.1951 46.7483 36.2754C46.2252 36.3717 45.6862 36.4038 45.1631 36.3717C44.101 36.3235 43.0706 36.0507 42.0878 35.6815C41.9293 35.6173 41.7866 35.5531 41.644 35.4889C40.677 34.9913 40.0271 34.1245 39.7259 33.0812C39.6783 32.9368 39.6466 32.7762 39.6149 32.6157C39.4564 31.7329 39.5515 30.7699 40.3283 30.2081C40.5819 30.0315 40.8989 29.9513 41.1367 29.7587C41.3903 29.55 41.644 29.4537 41.9452 29.3413C42.3732 29.1808 42.8329 29.0685 43.2926 29.0203C45.4326 28.7795 47.1446 30.1118 47.8421 32.1182C48.1274 32.9368 48.2701 33.8035 48.3969 34.6863ZM41.5647 31.8774C41.2318 31.8934 41.0574 32.1503 41.105 32.5194C41.1367 32.8083 41.1367 33.2257 41.5172 33.1936C41.9293 33.1454 42.0244 31.8453 41.5647 31.8774ZM45.9874 32.2305C45.9874 31.7169 45.4484 31.0748 44.957 31.1069C44.5132 31.123 44.5607 31.5724 44.5132 31.8453C44.4022 32.5515 45.9874 33.2738 45.9874 32.2305ZM104.497 57.6233C101.929 59.3407 98.8221 60.1915 95.7785 60.2557C94.0348 60.2878 92.3069 60.4001 90.5632 60.4001C89.8498 60.4001 89.2633 60.1433 88.6134 60.5606C88.4866 60.6409 88.3598 60.7532 88.2171 60.7693C86.3148 64.445 83.8578 67.8318 80.8776 70.8493C73.1419 78.6823 62.8381 83 51.9002 83C40.9623 83 30.6585 78.6823 22.9228 70.8493C15.7418 63.5782 11.5569 54.092 10.9862 43.9157C10.8594 43.8033 10.7168 43.691 10.5424 43.6107C8.35481 42.4871 6.76961 40.7697 5.56486 38.6349C5.26368 38.0891 4.88323 37.4953 4.40767 37.0779C4.12233 36.8211 3.12366 36.147 2.74321 36.147C1.60187 35.5531 0.777566 35.0234 0.127635 33.8677C-0.094293 33.4825 -0.0467368 33.2899 0.428823 33.2257C1.18972 33.1294 1.90306 32.8083 2.66395 32.6639C3.48825 32.5034 4.32841 32.4552 5.16856 32.5194C5.46975 32.5355 6.29405 32.8565 6.54769 32.6639C6.6745 32.5676 6.72206 32.391 6.72206 32.2145C6.70621 32.054 6.6428 31.8934 6.59524 31.7329C6.02457 30.3044 5.50146 29.0685 5.70753 27.4955C5.8185 26.6447 6.07213 26.4842 6.80132 26.9016C8.41822 27.8165 10.0351 28.7795 10.9862 30.4328C11.2716 30.9464 11.7313 31.5082 11.8898 32.07C11.9057 32.1342 11.9374 32.2145 11.9532 32.2787C12.8885 28.0893 14.4578 24.0926 16.6137 20.4009C16.6295 20.3688 16.6454 20.3527 16.6612 20.3367C16.3601 19.9033 15.9955 19.502 15.5833 19.0847C14.5688 18.0574 13.5384 17.0462 12.5239 16.019C12.1593 15.6658 11.9215 15.2324 11.7471 14.7349C11.5728 14.2694 11.6837 14.141 12.1751 14.2212C14.0457 14.5101 15.9955 15.2324 17.7392 15.8424C18.2464 16.0189 18.7379 16.2437 19.2293 16.4844C20.3706 14.9756 21.6071 13.515 22.9545 12.1506C30.6903 4.31773 40.994 0 51.9319 0C62.8698 0 73.1736 4.31773 80.9093 12.1506C88.6451 19.9836 92.9093 30.4167 92.9093 41.492C92.9093 43.5626 92.7507 45.6171 92.4654 47.6235C93.3373 48.2013 94.1933 48.8113 95.0493 49.4212C97.7283 51.3313 100.423 53.2413 103.102 55.1675C103.609 55.5206 104.148 55.7614 104.608 56.1787C105.163 56.7244 105.131 57.206 104.497 57.6233ZM20.862 17.0944C21.3059 17.3512 21.7339 17.608 22.1936 17.8488C22.3997 18.1698 23.0337 18.2821 23.3666 18.4106C23.8263 18.5871 24.2702 18.7797 24.7299 18.9563C25.6335 19.3255 26.537 19.6946 27.4564 20.0638C27.5516 20.128 27.6625 20.1762 27.7893 20.2243C28.0271 20.3206 28.2649 20.3848 28.5185 20.3527C28.6295 20.3367 28.7405 20.2725 28.788 20.1762C28.8039 20.1762 28.8356 20.1601 28.8514 20.1601C29.8025 19.5662 30.5 19.9675 31.1341 20.7219C31.5621 21.2195 32.1803 21.7331 32.7352 21.2355C33.7655 20.2885 34.4472 20.738 35.1764 21.5405C35.319 21.685 35.4934 21.7973 35.6361 21.9257C36.825 22.9691 38.4102 23.3061 39.9003 22.8085C40.1063 22.7443 40.2966 22.6801 40.5026 22.6159C41.1367 22.4073 41.6598 21.8936 42.2463 21.5566C42.8804 21.1874 43.5462 20.8503 44.212 20.5614C45.3692 20.0478 46.463 19.5823 47.7153 19.4539C48.9517 19.3255 50.204 19.2934 51.4563 19.2452C53.1367 19.1971 54.8011 19.1168 56.4814 19.0526C57.3533 19.0044 58.241 18.9402 59.0019 19.5181C59.636 19.9836 60.3493 20.433 61.0944 20.6898C61.8077 20.9466 62.521 21.1553 63.2027 21.4924C64.5501 22.1505 65.7707 23.0333 66.912 24.0124C67.7997 24.7668 68.735 25.4249 69.5593 26.2595C70.3519 27.0781 71.0969 27.977 71.731 28.9079C73.2211 31.0748 74.4576 33.3862 75.694 35.6975C76.3281 36.8853 77.0573 38.057 78.2303 38.7633C79.2607 39.3893 80.4655 39.6622 81.6544 39.8387C82.1458 39.919 82.5738 40.1437 82.7482 40.6413C83.0335 41.4278 83.7151 41.7327 84.3651 42.1019C85.3637 42.6476 86.5843 42.9045 87.2184 43.9638C88.0586 45.3442 89.5804 45.9381 90.9119 46.6925H90.9278C91.1497 44.9911 91.2607 43.2576 91.2607 41.508C91.2607 19.5502 73.6174 1.68536 51.9319 1.68536C39.2979 1.70141 28.0747 7.73661 20.862 17.0944ZM17.3112 17.1265C19.9426 18.3464 22.4472 19.7588 24.9835 21.1713C25.7444 21.6047 26.8382 22.1344 27.3613 22.8727C28.3283 24.221 30.4049 23.9482 31.7999 24.4458C31.9743 24.51 32.1645 24.5742 32.3547 24.6384C33.2107 24.9112 34.1777 25.0236 34.9703 25.473C35.3666 25.6977 35.6995 26.0348 36.0007 26.3719C36.2226 26.6287 36.4445 26.9016 36.6506 27.1744C36.8567 27.4473 37.0627 27.9128 37.3322 28.1054C37.7285 28.3943 38.1724 27.656 38.4102 27.4152C38.7906 27.046 39.1711 26.6768 39.5832 26.3558C39.8051 26.1793 39.9637 26.0027 40.0588 25.794C40.1856 25.6977 40.2966 25.5693 40.4392 25.5051V25.5212C41.1526 24.9915 41.4379 24.1889 41.1843 23.579C40.8672 23.7877 40.7087 24.0766 40.4392 24.3173C40.2331 24.51 39.9003 24.6705 39.6466 24.7507C39.076 24.9594 38.5211 24.831 38.1882 24.2852C38.1407 24.221 38.0139 24.1568 37.9346 24.1568C37.1262 24.1889 36.5238 23.595 35.858 23.2259C35.1447 22.8246 34.3204 22.5036 33.4961 22.5517C32.4181 22.6159 31.4353 22.3752 30.5476 21.7331C30.2464 21.5245 29.866 21.4282 29.5172 21.3158C29.1368 21.1874 28.7722 21.2997 28.3759 21.3318C28.0271 21.3479 27.6625 21.2837 27.3296 21.1553C26.6639 20.9145 26.0298 20.5614 25.3798 20.2885C24.6824 19.9836 23.969 19.6946 23.2715 19.3897C21.8448 18.7797 20.4182 18.1698 19.0232 17.4796C18.2623 17.1104 17.5173 16.6128 16.5661 16.5486C16.7564 16.9018 17.0576 16.9981 17.3112 17.1265ZM78.0243 65.7772C77.9292 65.7933 77.8657 65.8254 77.8182 65.8414C77.6597 65.8575 77.517 65.9056 77.3585 65.9377L77.2634 65.8896C77.0097 65.8093 76.661 65.713 76.4232 65.9698C75.694 66.7403 74.9965 67.5268 74.1564 68.4417C75.2185 68.2651 76.0428 67.9923 76.8037 67.591C76.9622 67.5107 77.089 67.4144 77.1841 67.286C77.2792 67.2058 77.3585 67.1255 77.4536 67.0131C77.5012 66.9489 77.5487 66.8687 77.5963 66.7884C77.6597 66.7082 77.7389 66.644 77.8182 66.5958C77.9292 66.5637 78.0243 66.5156 78.1194 66.4353C78.1828 66.3872 78.1986 66.339 78.2145 66.2748C79.7521 65.408 79.7838 65.0549 78.7852 63.9955C78.6742 64.14 78.7059 64.3005 78.7535 64.4289C79.0546 65.1994 78.8327 65.6328 78.0243 65.7772ZM75.4404 57.3504C74.8697 56.1787 74.0613 55.2638 72.6821 55.007C68.2436 54.1884 63.7733 53.2734 59.3665 52.3425C57.9715 52.0536 56.5924 51.7165 55.1499 51.8449C54.2939 51.9091 53.6439 52.2141 53.2318 52.7277C52.8513 52.5993 52.4075 52.9364 52.1855 53.2253C51.9319 53.5463 51.9953 53.9957 51.8209 54.3007C51.2027 55.344 50.9491 56.4676 50.8381 57.6393C50.7589 58.5382 50.8381 59.4531 50.8857 60.368C50.9332 61.01 50.6796 61.1385 50.1406 60.9137C49.6492 60.7051 49.1578 60.5446 48.6823 60.3359C47.6836 59.9025 47.3031 59.9828 46.5739 60.7532C46.241 61.1064 46.2569 61.3311 46.7642 61.4434C48.7615 61.9089 50.6162 62.8238 52.566 63.4498C53.4378 64.14 55.0389 64.1721 56.0693 64.5413C57.1948 64.9426 58.1934 64.9105 59.1446 64.0919C59.414 63.8671 59.8262 63.7869 60.1749 63.6585C60.3335 63.5943 60.5237 63.498 60.6505 63.7066C60.7932 63.9313 60.6346 64.0919 60.4761 64.2203C60.27 64.3968 60.0164 64.5413 59.842 64.7499C59.6518 64.9586 59.1921 64.9907 59.2872 65.3599C59.3665 65.6649 59.7469 65.6167 60.0006 65.697C61.7284 66.2427 63.4563 66.7403 65.1842 67.3021C66.1194 67.607 67.0705 67.8317 68.0534 67.607C69.2898 67.3181 70.5263 67.3342 71.731 67.7836C72.4127 68.0404 72.8724 67.7675 73.2845 67.2539C74.2515 66.0661 75.2343 64.8784 76.2171 63.7066C77.8499 61.7324 76.3915 59.3086 75.4404 57.3504ZM57.2423 49.3409C56.8936 48.9076 56.5448 48.4902 56.1961 48.0569C54.5792 46.0986 52.3758 45.1195 50.1723 43.9959C48.5871 43.1934 47.0178 42.3908 45.4802 41.492C42.8804 39.9511 40.3758 38.2978 37.9663 36.5001C36.5713 35.4728 35.1764 34.4616 33.5595 33.8196C32.0694 33.2257 30.5634 32.8565 28.9782 33.1615C28.5978 33.2417 28.0271 33.2096 27.9637 33.7393C27.9003 34.2529 27.8528 34.7987 28.4234 35.2321C29.0575 35.6975 29.7391 36.1791 30.1988 36.8532C31.6414 38.9238 32.0377 41.2994 31.9426 43.7712C31.895 44.9108 31.6889 46.0665 32.3706 47.0938C33.4644 48.731 33.2741 50.6732 33.6229 52.4869C33.8606 53.7229 33.7338 55.007 33.5595 56.2589C33.5278 56.4837 33.5436 56.7565 33.8131 56.8368C34.1143 56.917 34.0826 56.6121 34.146 56.4516C34.2252 56.2589 34.2887 56.0182 34.5264 56.0503C34.7801 56.0824 34.7801 56.3552 34.8118 56.5318C34.9386 57.1899 35.2239 57.7838 35.7629 58.1048C37.3798 59.0679 38.7431 60.4483 40.4868 61.2187C41.422 61.636 42.1988 61.7645 43.1024 61.0261C44.323 59.9988 45.2582 58.7148 46.3996 57.6233C47.2873 56.7726 48.3018 56.0021 48.7932 54.8464C49.7126 52.6635 51.7417 51.6202 53.7866 50.6732C54.8328 50.1916 55.8632 49.7904 57.0521 49.8867C57.1948 49.9027 57.3691 49.9027 57.4325 49.7262C57.4801 49.5496 57.3374 49.4533 57.2423 49.3409ZM23.0655 26.1953C22.6533 26.6447 22.1777 26.9176 21.5278 26.6768C21.29 26.5805 20.973 26.3558 20.7986 26.6126C20.5767 26.9176 20.5767 27.3189 20.862 27.656C21.7656 28.7314 22.574 29.8871 23.5569 30.8983C24.3812 31.749 25.4115 32.6318 26.6639 32.5355C26.9492 32.5194 27.2345 32.4392 27.5199 32.3429C27.9003 32.2145 28.2808 32.054 28.6771 31.9576C29.4379 31.7811 30.2147 31.7169 30.9914 31.7811C32.2596 31.9095 32.434 31.749 32.6242 30.4649C32.6718 30.0957 32.5766 29.9513 32.212 29.9513C31.1024 29.9673 29.9452 30.0636 28.899 29.6463C28.6929 29.566 27.932 29.3574 27.8527 29.1327C27.5199 28.298 27.4564 27.367 27.5199 26.4682C27.5357 26.3237 27.5357 26.1793 27.504 26.0348C27.4406 25.7138 27.1711 25.6817 26.9492 25.5212C25.8237 24.7668 25.2213 23.4345 23.9373 22.8567C23.0655 22.4715 22.0826 22.3912 21.1315 22.3912C19.7841 22.3912 18.6269 21.3479 18.6745 20.0638C18.1038 20.1922 18.183 20.6096 18.2782 21.0108C18.5159 21.9739 18.9915 22.8406 19.3402 23.7716C19.578 24.4297 20.0219 24.6063 20.6401 24.4458C21.2583 24.2692 21.8766 24.0605 22.4789 23.8358C23.0337 23.6271 23.5093 23.8679 23.652 24.3173C23.8263 25.0075 23.5569 25.6656 23.0655 26.1953ZM13.2055 34.3974C13.2689 34.59 13.3482 34.7826 13.4592 34.9431C13.6969 35.3284 14.2042 35.4568 14.5846 35.216C15.0919 34.895 14.8541 34.2529 15.2663 33.8838C15.4565 33.7233 15.6784 33.627 15.9162 33.5627C16.8515 33.2899 17.8501 33.3701 18.7854 33.627C19.9268 33.9319 21.0205 34.4616 22.0985 34.895C22.796 35.1679 23.4935 35.4728 24.2544 35.4889C24.7299 35.5049 25.0628 35.2321 25.2847 34.8468C25.4908 34.4777 25.253 34.1887 25.0311 33.8998C24.5238 33.2578 23.9215 32.7281 23.3032 32.2145C21.7656 30.9625 20.5133 29.3734 19.6573 27.5757C18.833 25.8261 18.3099 23.9321 17.5331 22.1505C15.4882 25.8903 13.9823 30.0155 13.2055 34.3974ZM11.5411 39.6782C11.9532 39.9832 12.2227 39.9671 12.2227 39.3572C12.2227 39.1646 12.1276 38.8435 12.4288 38.7954C12.6666 38.7472 12.8092 39.0041 12.9202 39.1967C12.9836 39.309 13.047 39.4374 13.1263 39.5016C13.5701 39.8548 13.9981 39.5658 14.3786 39.3732C14.7749 39.1646 14.3627 38.9078 14.2676 38.7151C13.9506 38.0891 13.586 37.4632 13.0629 36.9816C12.508 36.468 12.0959 35.842 11.9532 35.1197C11.6203 33.338 10.6375 31.9255 9.67053 30.481C9.29008 29.9192 8.81452 29.5018 8.2597 29.1487C7.8634 28.9079 7.38784 28.619 7.00739 28.924C6.61109 29.229 6.94399 29.7265 7.0708 30.1118C7.41955 31.1711 8.02192 32.1182 8.19629 33.2417C8.35481 34.2529 7.92681 34.6703 6.97569 34.3814C5.94531 34.0764 4.91493 33.8035 3.837 33.7554C3.53581 33.7393 3.15536 33.5788 3.02855 34.0603C2.91758 34.4616 3.0127 34.7826 3.37729 35.0555C4.10648 35.6012 4.85152 36.1149 5.73924 36.3075C6.57939 36.5001 6.83302 36.9816 6.83302 37.8002C6.84887 39.1646 8.16459 40.8018 9.90831 41.3957C9.73394 40.6894 9.43275 40.1116 9.63882 39.4695C9.86075 38.7472 10.1619 38.6349 10.7485 39.0522C11.0338 39.2769 11.2874 39.4856 11.5411 39.6782ZM13.3957 43.0168C13.4909 43.065 13.5384 43.1613 13.5543 43.2576C13.5701 43.4663 13.792 43.5786 13.9664 43.4823C14.0932 43.402 14.2042 43.3539 14.2835 43.3218C14.6956 43.1934 15.0761 43.4341 15.4248 43.6268C15.9321 43.9157 16.9466 44.6701 17.5014 44.0601C18.3416 43.1131 19.4036 41.508 18.9439 40.1597C18.6745 39.3893 17.977 38.6349 17.1368 38.5546C16.5978 38.5065 16.1857 39.3893 15.9479 39.7745C15.7577 40.1116 15.7101 40.4647 15.3297 40.6413C15.2187 40.6894 15.1078 40.7376 14.9968 40.7697C14.7115 40.8499 14.4103 40.9141 14.1249 40.9462C13.3482 41.0425 12.5239 41.0104 11.763 41.1549C11.2557 41.2512 11.3033 41.3475 11.4777 41.6846C11.7471 42.2143 12.0008 42.4229 12.6983 42.439C12.9202 42.4229 13.2055 42.9205 13.3957 43.0168ZM20.9254 65.9217C21.3851 66.1303 21.94 66.1143 22.4314 66.1143C23.7471 66.0822 25.0469 66.0501 26.3627 65.9217C26.9967 65.8575 27.6308 65.7772 28.2649 65.6649C28.788 65.5686 29.2636 65.6649 29.7867 65.6649C30.5476 65.6649 31.3085 65.6167 32.0852 65.5685C33.4326 65.5043 34.7642 65.408 36.1116 65.2796C36.8567 65.2154 37.4591 64.6376 37.5542 63.8832C37.6176 63.3375 37.4908 62.8078 37.5542 62.262C37.6017 61.925 37.8553 61.3471 37.4432 61.1706C36.9835 60.9619 36.7933 61.5558 36.6189 61.8608C36.3177 62.3744 36.0482 62.2299 35.747 61.941C35.1605 61.3792 34.9069 60.6409 34.6532 59.9025C34.5898 59.726 34.6691 59.421 34.3679 59.4531C34.035 59.4852 34.146 59.7902 34.146 59.9988C34.146 60.5285 34.1935 61.0582 34.1618 61.5879C34.1143 62.6152 33.8448 63.5782 33.3692 64.4771C33.2107 64.766 32.9412 64.9426 32.6242 64.8623C32.2279 64.766 32.4974 64.445 32.4974 64.2203C32.4974 63.9474 32.5608 63.6745 32.6242 63.4017C33.0046 62.0213 33.0839 60.6248 33.0522 59.1963C33.0363 58.795 33.0205 58.3456 32.6718 57.9603C32.2913 58.5542 32.1962 59.1481 32.212 59.7902C32.2437 61.2027 31.784 62.4707 31.0707 63.6424C30.9439 63.835 30.8329 64.0758 30.5634 63.9634C30.2781 63.8511 30.4208 63.5622 30.4525 63.3696C30.5634 62.6954 30.7378 62.0373 30.8488 61.3632C31.1183 59.7741 31.4829 58.2011 31.1975 56.5479C31.0231 55.4885 30.8488 54.4291 30.8488 53.3537C30.8329 52.2622 30.9122 51.1547 30.8329 50.0632C30.8171 49.7583 30.7537 49.3249 30.2464 49.3249C29.7867 49.3249 29.6123 49.5657 29.4855 49.983C29.3745 50.3522 28.8514 52.4869 28.2966 52.2141C27.9479 52.0536 28.1381 50.8818 28.2015 50.5929C28.8831 47.3667 29.0099 44.0762 29.3904 40.8178C29.4697 40.1597 29.4697 39.4374 29.1051 38.8596C28.8514 38.4583 28.4234 38.2497 28.0588 37.9768C27.7735 37.7681 26.1724 36.3556 25.8078 36.6927C25.3798 37.094 25.9188 37.5595 26.1407 37.9447C26.8699 39.2127 27.3772 40.5129 27.2345 42.0377C27.076 43.7712 26.8699 45.4726 26.109 47.0938C25.475 48.4581 25.1104 49.9509 24.4921 51.3313C23.8263 52.8401 22.574 53.9315 21.3693 54.9909C20.7669 55.5206 20.2121 56.1145 19.6256 56.6602C19.4036 56.8689 18.4684 57.3183 18.5793 56.6121C18.6269 56.3231 19.1976 56.0984 18.6427 55.9219C18.1355 55.7614 17.4697 56.0824 16.9624 55.97C16.7405 55.9219 16.4869 55.8577 16.4235 55.6169C16.3601 55.2959 16.693 55.2798 16.8832 55.1996C17.0734 55.1193 17.2636 55.0391 17.4538 54.9909C18.833 54.6378 20.2121 54.2847 21.3376 53.3858C21.5437 53.2253 21.8131 53.1129 21.6863 52.7117C21.1474 52.8722 20.6718 53.2092 20.0536 53.129C20.3548 52.2943 20.9888 51.9091 21.7022 51.6523C22.5582 51.3634 23.2398 50.6892 23.5569 49.8225C24.4129 47.4309 25.6652 45.2158 25.8395 42.5353C26.0456 39.5016 24.7933 36.9014 21.7022 36.0025C21.0205 35.8099 20.3706 35.537 19.7841 35.1197C18.2464 34.0443 16.8515 34.3492 15.5041 35.1518C15.3931 35.216 15.3297 35.3123 15.2504 35.3926V35.3765C15.0285 35.6012 14.6163 35.7617 14.87 36.1791C14.9334 36.2914 15.0919 36.4359 15.2029 36.3717C15.3297 36.468 15.4724 36.5001 15.615 36.5001C16.265 36.5001 17.121 36.4359 17.7709 36.6927C19.689 37.4471 20.6242 39.2609 20.1962 41.3154C19.9109 42.6637 19.3244 43.9157 18.5318 45.0392C18.2623 45.4245 16.4235 48.0248 15.9796 47.5753C15.6784 47.2543 16.3442 46.5962 16.2808 46.211C16.2967 46.3394 14.8224 46.8209 14.6956 46.9012C14.4261 47.0617 14.1249 47.158 13.8079 47.1259L12.9519 47.0296C13.9189 54.0118 16.693 60.4162 20.7669 65.7451C20.8145 65.8735 20.8779 65.9056 20.9254 65.9217ZM86.5368 60.3841C86.2831 60.2878 86.1563 60.0951 85.871 59.9346C85.2528 59.5655 84.4919 59.5655 83.8102 59.421C83.2871 59.3086 83.192 59.5976 83.2713 60.0149C83.3505 60.4964 83.4139 60.9779 83.2713 61.4434C82.7957 63.0325 82.4945 64.9426 81.1471 66.0019C78.6425 67.9602 74.8063 71.5556 71.4932 69.2282C70.8592 68.7788 70.0824 68.4417 69.3057 68.6504C68.307 68.9232 67.2608 69.1479 66.2462 68.9232C65.1366 68.6825 64.027 68.3775 62.9332 68.0565C60.7298 67.4144 58.558 66.6761 56.3546 66.0661C54.8804 65.6649 53.4061 65.2315 51.9636 64.7018C50.6162 64.2042 49.3797 63.498 48.0165 63.0485C46.8434 62.6633 45.7338 62.7115 44.5132 62.7757C44.2913 62.7917 44.1327 62.9201 44.0059 63.0646C43.1816 63.9956 41.8659 63.4819 40.8514 63.2893C40.5819 63.2411 40.3917 63.209 40.4075 63.6264C40.4234 64.6215 40.2014 65.2636 39.5832 66.034C39.1235 66.6119 38.426 66.5316 37.7761 66.5958C36.9676 66.6921 36.175 66.7724 35.3666 66.8526C33.718 67.0292 31.0073 67.1737 29.3428 67.2058C26.8382 67.2379 24.3178 67.3342 21.8131 67.0774C29.0258 75.777 39.8527 81.3146 51.9319 81.3146C66.8486 81.3467 79.8789 72.8557 86.5368 60.3841ZM99.7573 57.3504C99.361 57.1578 98.9489 56.9973 98.5367 56.8528C97.7124 56.5639 96.8564 56.3552 96.0163 56.0984C94.3835 55.6008 92.8617 54.9909 91.1339 55.023C90.0401 55.0391 89.0414 55.4082 87.9635 55.3601C87.694 55.344 87.3135 55.3119 87.2818 55.007C87.2501 54.6699 87.6464 54.6699 87.8842 54.5896C88.3281 54.4291 88.8829 54.4773 89.1524 53.8673C88.7244 53.7871 88.4549 54.0439 88.1378 54.076C87.8842 54.1081 87.583 54.092 87.472 53.8513C87.3294 53.5463 87.6623 53.45 87.8525 53.3216C88.3756 52.9685 89.0255 52.9043 89.6121 52.6956C89.8657 52.6153 90.0084 52.4388 89.9132 52.182C89.8181 51.9091 89.5804 51.9894 89.406 52.0696C88.8829 52.2622 88.4073 52.3746 87.8208 52.2301C86.6319 51.9252 85.4588 51.235 84.3333 51.2029C82.875 51.1708 82.1299 50.7695 81.8287 49.373C81.7178 48.8755 81.2422 48.8915 80.8301 48.9557C80.4021 49.0199 80.2752 49.3088 80.2594 49.7101C80.2435 49.9509 80.4338 50.3361 79.9741 50.3522C79.6095 50.3843 79.5778 50.0311 79.4827 49.7904C79.2607 49.1644 79.229 48.4742 79.1339 47.8161C79.1022 47.5593 79.1498 46.9975 78.7852 46.9493C78.5632 46.9172 78.2462 46.837 78.1511 47.0456C77.9926 47.3667 77.7548 47.6716 77.6914 48.0248C77.628 48.3779 77.7072 48.731 77.8182 49.052C78.0243 49.6459 77.9767 50.2719 77.7548 50.8497C77.5487 51.3634 77.3585 51.5239 76.8354 51.7807C76.5183 51.9252 75.9477 52.1338 75.9318 51.5881C75.916 51.2992 75.7257 51.3473 75.5672 51.4276C75.266 51.556 74.9965 51.7325 74.6954 51.8609C74.5527 51.9252 74.3783 52.0857 74.2198 51.9091C74.0771 51.7646 74.1405 51.572 74.1881 51.4115C74.299 51.0102 74.6795 50.7213 74.6478 50.2558C74.2673 50.1595 74.0454 50.4806 73.7442 50.5608C73.4747 50.6411 73.1894 50.7374 72.9041 50.6732C72.6663 50.625 72.5553 50.4324 72.3334 50.3522C71.6835 50.0793 71.9054 50.8818 71.9688 51.251C72.0164 51.4918 72.0322 51.7325 71.953 51.9573C71.8578 52.198 71.6042 52.4067 71.3506 52.3264C71.097 52.2462 70.9701 51.9412 70.875 51.7165C70.558 50.9621 70.1458 50.2719 69.2898 50.0151C68.8618 49.8867 68.8301 49.5014 68.735 48.9236C68.3863 49.662 67.8948 50.0953 68.0058 50.7374C68.2119 51.9412 69.3532 53.0006 70.558 53.0648C71.1921 53.0969 71.7786 53.3055 72.3651 53.4821C73.982 53.9315 75.4245 54.8304 76.9939 55.4082C78.2303 55.8737 79.4351 56.3552 80.6398 56.901C81.591 57.3344 82.4311 58.1048 83.4773 58.2172C86.1088 58.5061 88.55 59.3407 91.2448 59.2444C92.9727 59.1802 94.7164 59.2284 96.4601 59.1642C97.6649 59.1321 98.7904 58.6987 99.8049 58.0085C100.185 57.7035 100.185 57.5591 99.7573 57.3504ZM102.373 56.4516C100.233 55.2317 98.1404 53.8994 96.0955 52.503C95.0493 51.7967 94.0348 51.0745 93.0044 50.3522C92.513 49.999 92.0216 49.662 91.5302 49.2928C91.1339 48.9878 90.6266 48.7792 90.262 48.4581C87.694 46.2912 84.7931 44.4775 82.1458 42.4069C80.8935 41.4278 79.6412 40.7055 78.1828 40.0634C77.6755 39.8387 77.2792 39.5337 76.8037 39.293C76.0111 38.8917 75.3294 38.2818 75.1392 37.3508C75.0124 36.773 74.6954 36.773 74.2832 36.789C73.8235 36.8051 73.554 37.1261 73.3479 37.4632C72.9516 38.1694 72.5712 38.8756 72.2541 39.614C72.0798 40.0313 72.0798 40.4005 71.4774 40.5129C70.8433 40.6252 70.7324 40.6252 70.7799 39.935C70.8116 39.3411 71.1287 38.7793 71.0811 38.1534C70.669 38.2015 70.7482 38.6509 70.5263 38.8114C70.13 39.1004 70.1934 38.4583 69.8764 38.4262C69.7178 38.9399 69.591 39.4214 69.4166 39.8869C69.274 40.24 69.3532 40.545 68.846 40.4166C68.5448 40.3523 68.2911 40.0955 68.2436 39.7745C68.1485 38.9399 68.0058 38.1213 67.8949 37.3026C67.6571 35.2963 67.0706 33.4022 65.3744 32.1984C63.7892 31.0748 62.1406 29.9031 60.2225 31.0267C59.9213 31.2032 59.636 31.0588 59.4933 30.8501C59.3031 30.6094 59.5567 30.3846 59.7311 30.2081C59.9213 30.0155 60.1591 29.855 60.3652 29.6784C60.9041 29.1969 61.4907 28.8758 62.1723 29.1969C62.743 29.4537 63.2502 29.7908 63.7892 30.0957C64.455 30.4649 65.0732 30.7538 65.6756 31.2514C66.2304 31.7169 66.7535 32.2145 67.4193 32.5355C67.7363 32.696 67.9741 33.001 68.1643 32.4071C68.2911 31.9897 68.6875 32.0218 68.9886 32.1182C69.3532 32.2466 69.0996 32.5194 69.0679 32.7441C68.9728 33.3541 68.5448 33.8517 68.5606 34.4777C68.5606 34.7987 68.624 35.1679 68.9411 35.2321C69.2106 35.2802 69.2423 34.8789 69.3374 34.6703C69.4642 34.3492 69.5276 33.9961 69.6386 33.6591C69.8446 33.0331 70.0507 32.4071 70.2885 31.7971C70.3995 31.5243 70.6689 31.3317 70.8909 31.6206C70.986 31.749 71.0177 31.9255 71.0335 32.0861C71.0652 32.3429 71.1445 32.6157 71.2396 32.8565C71.3189 33.0652 71.4774 33.2738 71.731 33.2578C72.0481 33.2417 72.0798 32.9207 72.1749 32.712C72.27 32.5194 72.159 32.3108 72.0481 32.1342C71.2872 30.8341 70.7641 29.4055 69.6861 28.282C68.9886 27.5597 68.2912 26.8053 67.5461 26.1311C66.8962 25.5372 66.1194 24.7668 65.2793 24.4939C64.9464 24.2692 64.6135 23.9803 64.233 23.8358C62.5844 23.1938 60.9992 22.4233 59.5884 21.2997C57.8923 19.9515 55.7205 20.112 53.6915 20.1441C53.3586 20.1441 53.0415 20.1601 52.7087 20.1601C50.2674 20.1922 47.6994 19.9194 45.4484 21.0911C44.323 21.685 43.1341 22.1505 42.389 23.3703C43.1182 23.4345 43.5145 22.648 44.1644 22.8246C44.3547 23.0654 43.7523 23.5469 44.3705 23.579C45.3375 23.6272 46.2252 23.9321 47.1446 24.1729C48.064 24.4136 49.0151 24.7026 49.57 25.6014C49.4114 25.794 49.2529 25.7138 49.1103 25.6977C47.7628 25.6335 46.5105 25.2483 45.2741 24.7668C45.0204 24.6705 44.7668 24.5581 44.4815 24.6544C43.1816 25.1038 41.7866 25.5051 40.6136 26.2274C39.5357 26.9016 38.9016 28.0091 38.3785 29.1487C37.7919 30.4328 37.3798 31.7811 36.7457 33.0491C36.6506 33.2578 36.6823 33.4985 36.8725 33.6912C37.3639 34.1887 37.9663 34.59 38.5528 34.9752C39.1552 35.3605 39.6783 35.826 40.249 36.2593C40.7721 36.6606 41.3586 37.0137 41.8976 37.3989C42.8012 38.041 43.7047 38.683 44.6558 39.2609C45.8447 39.9832 47.0971 40.6092 48.3811 41.1709C49.6334 41.7167 50.9491 42.2624 52.2807 42.6316C52.455 42.6797 52.6294 42.8242 52.7879 42.9045C55.3718 44.1885 57.1948 46.3233 59.0177 48.5063C59.3189 48.8594 59.4457 49.3088 59.5092 49.7583C59.6518 50.6732 60.5237 51.1547 61.4748 50.8016C61.1895 50.609 60.9041 50.4324 60.6505 50.2558C60.5078 50.1435 60.3018 50.0953 60.4603 49.8064C60.809 49.1644 61.6492 48.6828 62.3784 48.7952C62.6954 48.8434 63.0124 48.9236 63.3136 49.0199C63.5039 49.0841 63.7099 49.2607 63.8843 49.357C64.0904 49.4693 64.3123 49.5656 64.5342 49.6459C64.9305 49.7904 65.3268 49.8546 65.739 49.8546C66.4365 49.8706 67.1657 49.6941 67.4986 49.0039C68.4021 47.1419 69.3057 45.28 69.3691 43.1452C69.3849 42.744 69.4166 42.134 69.8288 42.1661C70.3519 42.2143 70.3995 42.8403 70.3678 43.3378C70.3519 43.4823 70.2726 43.6268 70.2409 43.7712C69.8129 45.28 70.0032 44.9911 69.4483 46.4678C69.3849 46.6123 69.1789 47.5272 69.1789 47.8482C69.1789 48.0729 69.48 48.9076 69.6703 48.7792C69.8922 48.6347 69.8446 48.3779 69.8446 48.1532C69.8288 47.1901 70.1617 46.3715 70.8433 45.6973C71.3981 45.1356 71.731 44.5417 71.6993 43.691C71.6676 42.7761 72.1115 42.2624 72.8565 42.1822C73.4589 42.118 73.982 42.3908 74.4893 42.6476C75.1234 42.9687 75.7257 42.9205 76.3915 42.6476C76.1379 42.3587 75.8684 42.2303 75.5197 42.2464C75.1234 42.2624 74.7271 42.2624 74.3149 42.2464C74.093 42.2464 73.8076 42.1982 73.7918 41.9414C73.7759 41.7167 74.0454 41.6685 74.2356 41.6043C75.1709 41.3636 76.1062 41.2512 77.0256 41.6364C78.0243 42.0538 79.0071 42.5192 79.9899 42.9847C80.3387 43.1452 80.941 43.4823 80.8301 43.6749C80.5764 44.1083 80.085 43.7231 79.6887 43.6589C79.0229 43.5465 78.5474 42.9205 77.7706 43.0971C79.7046 44.1885 81.6068 45.3442 83.5407 46.4517C86.0929 47.9124 88.7561 49.1644 91.3399 50.5929C93.9079 52.0215 96.4601 53.5624 98.9806 55.023C100.027 55.6972 101.089 56.3231 102.373 56.4516ZM70.3361 36.6446C70.9226 36.0988 71.0177 35.8581 71.0335 35.0394C70.2409 35.3123 70.3044 35.9383 70.3361 36.6446ZM51.0442 31.3477C51.3137 30.802 51.06 29.9673 50.6162 29.4216C49.9029 28.5709 49.142 27.7683 48.3335 27.0139C46.7483 25.5372 44.2596 25.4891 42.3098 26.1793C41.6915 26.404 41.1209 26.725 40.5977 27.0942C40.4709 27.1905 40.3124 27.2707 40.2014 27.3991C40.1222 27.4794 40.0746 27.5597 40.0746 27.672C40.0429 27.9288 40.1697 28.1856 40.1856 28.4425C40.1856 28.4746 40.6294 28.1856 40.6611 28.1696C40.8038 28.0412 40.9465 27.9128 41.0892 27.8004C41.422 27.5276 41.7866 27.2868 42.1829 27.1423C44.6558 26.2435 46.8593 26.7411 48.7932 28.4906C49.4749 29.1166 49.9504 29.9031 49.998 31.0106C49.6017 30.7217 49.3956 30.4007 49.2054 30.0957C48.0006 28.0893 45.7496 27.0139 43.4669 27.367C42.9438 27.4473 42.4366 27.4955 41.9452 27.7041C41.7391 27.8004 41.533 27.9128 41.4062 28.0893C41.2952 28.2498 41.1209 28.4425 41.2794 28.6351C41.4062 28.7956 41.6123 28.6511 41.7549 28.5869C42.7536 28.1696 43.784 28.1375 44.8302 28.2498C46.352 28.4264 47.3982 29.3092 48.2067 30.513C48.9993 31.6687 49.4431 32.9849 50.0772 34.2369C50.2833 34.6542 50.1089 35.0073 49.7602 35.2963C49.2371 35.7296 48.7457 36.2112 48.6505 36.9335C48.5713 37.4792 48.9042 37.736 49.348 37.8484C49.8236 37.9768 49.8553 37.5434 49.887 37.2224C49.9346 36.6927 50.2833 36.3556 50.6637 36.0667C51.2978 35.5531 51.5673 34.9752 51.2344 34.1406C50.8064 33.2578 50.5211 32.391 51.0442 31.3477ZM60.4603 34.1406C60.5554 34.3974 60.8407 34.6382 61.1261 34.4616C62.2832 33.7393 63.5356 34.3814 64.661 34.895C64.9464 35.0234 65.2476 34.8147 65.2476 34.5098V34.4937C65.2476 34.3172 65.1366 34.1727 64.9781 34.1085C64.7245 34.0122 64.455 33.8356 64.2172 33.7554C63.1234 33.4183 61.9662 33.6109 60.8566 33.7554C60.6822 33.7554 60.3493 33.8356 60.4603 34.1406ZM65.0415 42.2785C64.9622 42.2624 64.8988 42.2785 64.8354 42.3266C64.5025 42.6476 63.805 42.6797 63.377 42.7921C63.171 42.8403 62.8381 42.9526 62.9332 43.2415C63.0917 43.7231 63.6941 43.6749 64.2013 43.4984C64.4867 43.402 64.7562 43.2736 64.8988 43.1773C65.0098 43.1131 65.1208 43.0329 65.1842 42.9205C65.2951 42.76 65.2793 42.3266 65.0415 42.2785ZM57.0521 34.895C58.241 33.8838 59.4933 33.0652 61.0944 32.9849C61.6175 32.9528 62.1247 32.8084 62.521 32.4071C62.632 32.2947 62.743 32.1824 62.7113 32.0218C62.6795 31.8453 62.521 31.8132 62.3625 31.7971C61.3163 31.7169 60.2701 31.7169 59.2714 32.1342C57.6545 32.8084 56.3546 33.9319 54.9438 34.9431C53.7866 35.7778 52.883 36.6606 53.2318 38.2497C53.2318 38.683 53.2159 39.1164 53.2318 39.5337C53.2476 39.7264 53.2793 39.9671 53.533 39.9992C53.8183 40.0474 53.9293 39.8548 53.9927 39.614C54.1353 39.0522 54.3573 38.5225 54.4207 37.9286C54.5158 36.9174 54.9755 36.1951 55.9108 35.7457C56.3388 35.537 56.7034 35.2 57.0521 34.895ZM38.426 31.2032C37.8871 31.4119 37.7919 31.8453 37.9505 32.4552C38.4736 32.1663 38.6479 31.749 38.6796 31.2514C38.6955 31.2514 38.5053 31.1711 38.426 31.2032ZM42.9438 45.9863C42.5792 45.3763 42.2305 44.7503 41.85 44.1404C41.5172 43.6107 41.216 43.2736 40.6453 42.9847C40.5185 42.9205 40.2649 42.7279 40.2331 43.0008C40.2331 43.081 40.249 43.1452 40.2807 43.2255C40.5819 44.0441 41.105 44.6861 41.5489 45.4245C41.8659 45.9542 42.1829 46.4999 42.5158 47.0296C42.7061 47.3346 43.1658 48.2976 43.673 48.0729C43.8474 47.9926 43.784 47.7519 43.7364 47.5914C43.6255 46.9975 43.245 46.4999 42.9438 45.9863ZM33.5278 41.1228C33.5278 40.7055 33.3534 40.4647 32.9095 40.4486C32.3706 40.4165 32.5449 40.8339 32.5132 41.0746C32.434 41.5241 32.4815 41.9896 32.6876 42.4069C32.7827 42.6155 32.862 42.8884 33.0998 42.9045C33.3851 42.9045 33.3375 42.5834 33.4168 42.3908C33.5436 42.1019 33.5436 41.7969 33.5278 41.508C33.5119 41.3796 33.5119 41.2512 33.5278 41.1228ZM32.2755 37.5274C31.8633 37.1903 31.4194 36.8693 30.722 36.8372C31.039 37.7039 31.578 38.2978 32.0535 38.9238C32.2913 39.2448 32.4974 39.0522 32.5766 38.7793C32.7193 38.3139 32.6559 37.8484 32.2755 37.5274ZM37.9188 40.6894C37.9822 41.7488 38.6162 42.76 39.3613 43.0008C39.3296 41.9896 38.8699 41.2512 37.9188 40.6894ZM23.0813 59.6618C23.4935 59.4692 23.8263 59.2123 24.0958 58.8432C24.9835 57.7196 25.5701 56.4676 25.8713 55.0551C25.9188 54.7983 26.1883 54.5094 25.8395 54.3168C25.5067 54.1402 25.2847 54.4131 25.0945 54.6699C23.9532 56.1787 22.5582 57.4307 21.1315 58.6505C20.8462 58.8913 20.4182 59.1963 20.6242 59.5494C20.862 59.9507 21.2742 59.5494 21.6071 59.4531C22.1936 59.2765 22.5582 58.6666 23.2081 58.5382C23.3191 58.9395 22.8911 59.2123 23.0813 59.6618ZM85.0308 55.2959C84.3968 55.1996 84.2065 55.6811 83.9053 55.9861C83.7627 56.1305 83.6359 56.3231 83.7468 56.5318C83.8895 56.7886 84.0956 56.6281 84.2699 56.58C84.5711 56.4837 84.8882 56.3713 85.1577 56.2268C85.3796 56.0984 85.7125 55.9861 85.6649 55.665C85.6174 55.2798 85.2211 55.3761 85.0308 55.2959ZM24.6824 30.2402C25.1104 30.2883 25.1896 29.6784 25.1738 29.0364C25.1579 28.4906 25.0469 27.9128 25.0152 27.6881C24.9835 27.4473 24.8567 27.2547 24.6031 27.2065C24.3495 27.1584 24.1909 27.3189 24.08 27.5276C23.6678 28.2659 23.7471 29.0203 24.08 29.7747C24.1751 30.0315 24.397 30.2081 24.6824 30.2402ZM25.7286 31.5243C25.903 31.5243 26.0298 31.3638 25.9822 31.1872C25.903 30.8662 25.792 30.5773 25.4115 30.5291C25.0628 30.4809 25.1896 30.8341 25.1896 31.0267C25.1738 31.5243 25.4274 31.5403 25.7286 31.5243ZM9.27423 35.6494C8.95719 35.5049 8.54504 35.4568 8.2914 35.7617C7.8951 36.2433 7.22932 36.6125 7.37199 37.3829C7.45125 37.7842 7.56221 38.362 8.00607 38.4102C8.51333 38.4583 8.40237 37.8323 8.57674 37.5113C8.6877 37.3026 8.656 36.9174 9.09986 37.2063C9.65467 37.5755 9.94001 37.3829 9.90831 36.5322C9.90831 36.2112 9.70223 35.8259 9.27423 35.6494ZM11.0021 35.9223C10.6692 36.1951 10.6375 36.5161 10.7326 36.8372C10.796 37.0619 10.9545 37.2866 11.2082 37.2384C11.5094 37.1742 11.3033 36.9014 11.3033 36.7409C11.3033 36.4519 11.224 36.1951 11.0021 35.9223Z" fill="#6750A4"/>
</svg>
